<svg width="301" height="40" viewBox="0 0 301 40" fill="none" xmlns="http://www.w3.org/2000/svg">
<g filter="url(#filter0_d)">
<path d="M9.28516 1.00003H6.82422C5.46504 1.00003 4.36328 2.10179 4.36328 3.46097H11.7461C11.7461 2.10179 10.6443 1.00003 9.28516 1.00003Z" fill="url(#paint0_linear)"/>
<path d="M38.4883 5.92187H30.2697L29.4705 3.5241C28.9672 2.01432 27.5598 1 25.9684 1H18.0316C16.4403 1 15.0328 2.01432 14.5296 3.5241L13.7303 5.92187H5.51172C3.02396 5.92187 1 7.94583 1 10.4336V31.7617C1 34.2495 3.02396 36.2734 5.51172 36.2734H38.4883C40.976 36.2734 43 34.2495 43 31.7617V10.4336C43 7.94583 40.976 5.92187 38.4883 5.92187ZM5.18359 10.4336C5.18359 9.75404 5.73452 9.20312 6.41406 9.20312H8.875C9.55455 9.20312 10.1055 9.75404 10.1055 10.4336C10.1055 11.1131 9.55455 11.6641 8.875 11.6641H6.41406C5.73452 11.6641 5.18359 11.1131 5.18359 10.4336ZM22 32.1719C15.4414 32.1719 10.1055 26.836 10.1055 20.2773C10.1055 13.7187 15.4414 8.38281 22 8.38281C28.5586 8.38281 33.8945 13.7187 33.8945 20.2773C33.8945 26.836 28.5586 32.1719 22 32.1719ZM36.7656 11.6641C36.0861 11.6641 35.5352 11.1131 35.5352 10.4336C35.5352 9.75404 36.0861 9.20312 36.7656 9.20312C37.4452 9.20312 37.9961 9.75404 37.9961 10.4336C37.9961 11.1131 37.4452 11.6641 36.7656 11.6641Z" fill="url(#paint1_linear)"/>
<path d="M22 10.8438C16.7983 10.8438 12.5664 15.0757 12.5664 20.2773C12.5664 25.479 16.7983 29.7109 22 29.7109C27.2017 29.7109 31.4336 25.479 31.4336 20.2773C31.4336 15.0757 27.2017 10.8438 22 10.8438ZM22 26.8398C18.3814 26.8398 15.4375 23.8959 15.4375 20.2773C15.4375 16.6588 18.3814 13.7148 22 13.7148C25.6186 13.7148 28.5625 16.6588 28.5625 20.2773C28.5625 23.8959 25.6186 26.8398 22 26.8398Z" fill="url(#paint2_linear)"/>
<path d="M22 24.3789C24.2652 24.3789 26.1016 22.5426 26.1016 20.2774C26.1016 18.0121 24.2652 16.1758 22 16.1758C19.7348 16.1758 17.8984 18.0121 17.8984 20.2774C17.8984 22.5426 19.7348 24.3789 22 24.3789Z" fill="url(#paint3_linear)"/>
<path d="M56.4922 24.2109V30H52.3789V12.9375H59.1875C60.4922 12.9375 61.6445 13.1797 62.6445 13.6641C63.6523 14.1406 64.4297 14.8242 64.9766 15.7148C65.5312 16.5977 65.8086 17.6016 65.8086 18.7266C65.8086 20.3906 65.2109 21.7227 64.0156 22.7227C62.8281 23.7148 61.1953 24.2109 59.1172 24.2109H56.4922ZM56.4922 21.0352H59.1875C59.9844 21.0352 60.5898 20.8359 61.0039 20.4375C61.4258 20.0391 61.6367 19.4766 61.6367 18.75C61.6367 17.9531 61.4219 17.3164 60.9922 16.8398C60.5625 16.3633 59.9766 16.1211 59.2344 16.1133H56.4922V21.0352ZM71.6914 18.6797C72.5351 17.6172 73.6133 17.0859 74.9258 17.0859C76.3242 17.0859 77.3789 17.5 78.0898 18.3281C78.8008 19.1562 79.1641 20.3789 79.1797 21.9961V30H75.2187V22.0898C75.2187 21.418 75.082 20.9258 74.8086 20.6133C74.5351 20.293 74.0703 20.1328 73.4141 20.1328C72.6016 20.1328 72.0273 20.3906 71.6914 20.9062V30H67.7422V12H71.6914V18.6797ZM80.8789 23.543C80.8789 22.2773 81.125 21.1523 81.6172 20.168C82.1094 19.1758 82.8164 18.4141 83.7383 17.8828C84.6601 17.3516 85.7422 17.0859 86.9844 17.0859C88.8828 17.0859 90.3789 17.6758 91.4726 18.8555C92.5664 20.0273 93.1133 21.625 93.1133 23.6484V23.7891C93.1133 25.7656 92.5625 27.3359 91.4609 28.5C90.3672 29.6562 88.8828 30.2344 87.0078 30.2344C85.2031 30.2344 83.7539 29.6953 82.6601 28.6172C81.5664 27.5312 80.9766 26.0625 80.8906 24.2109L80.8789 23.543ZM84.8281 23.7891C84.8281 24.9609 85.0117 25.8203 85.3789 26.3672C85.7461 26.9141 86.2891 27.1875 87.0078 27.1875C88.4141 27.1875 89.1328 26.1055 89.1641 23.9414V23.543C89.1641 21.2695 88.4375 20.1328 86.9844 20.1328C85.6641 20.1328 84.9492 21.1133 84.8398 23.0742L84.8281 23.7891ZM99.4531 14.168V17.3203H101.539V20.0625H99.4531V25.8633C99.4531 26.3398 99.5391 26.6719 99.7109 26.8594C99.8828 27.0469 100.223 27.1406 100.73 27.1406C101.121 27.1406 101.449 27.1172 101.715 27.0703V29.8945C101.004 30.1211 100.262 30.2344 99.4883 30.2344C98.1289 30.2344 97.125 29.9141 96.4766 29.2734C95.8281 28.6328 95.5039 27.6602 95.5039 26.3555V20.0625H93.8867V17.3203H95.5039V14.168H99.4531ZM102.254 23.543C102.254 22.2773 102.5 21.1523 102.992 20.168C103.484 19.1758 104.191 18.4141 105.113 17.8828C106.035 17.3516 107.117 17.0859 108.359 17.0859C110.258 17.0859 111.754 17.6758 112.848 18.8555C113.941 20.0273 114.488 21.625 114.488 23.6484V23.7891C114.488 25.7656 113.937 27.3359 112.836 28.5C111.742 29.6562 110.258 30.2344 108.383 30.2344C106.578 30.2344 105.129 29.6953 104.035 28.6172C102.941 27.5312 102.352 26.0625 102.266 24.2109L102.254 23.543ZM106.203 23.7891C106.203 24.9609 106.387 25.8203 106.754 26.3672C107.121 26.9141 107.664 27.1875 108.383 27.1875C109.789 27.1875 110.508 26.1055 110.539 23.9414V23.543C110.539 21.2695 109.812 20.1328 108.359 20.1328C107.039 20.1328 106.324 21.1133 106.215 23.0742L106.203 23.7891ZM115.766 23.5664C115.766 22.2852 115.977 21.1523 116.398 20.168C116.82 19.1836 117.426 18.4258 118.215 17.8945C119.004 17.3555 119.922 17.0859 120.969 17.0859C122.289 17.0859 123.32 17.5312 124.062 18.4219L124.203 17.3203H127.789V29.5195C127.789 30.6367 127.527 31.6055 127.004 32.4258C126.488 33.2539 125.738 33.8867 124.754 34.3242C123.77 34.7695 122.629 34.9922 121.332 34.9922C120.402 34.9922 119.5 34.8164 118.625 34.4648C117.758 34.1133 117.094 33.6562 116.633 33.0938L118.285 30.7734C119.02 31.6406 119.988 32.0742 121.191 32.0742C122.941 32.0742 123.816 31.1758 123.816 29.3789V28.9805C123.059 29.8164 122.102 30.2344 120.945 30.2344C119.398 30.2344 118.148 29.6445 117.195 28.4648C116.242 27.2773 115.766 25.6914 115.766 23.707V23.5664ZM119.727 23.8125C119.727 24.8516 119.922 25.6758 120.312 26.2852C120.703 26.8867 121.25 27.1875 121.953 27.1875C122.805 27.1875 123.426 26.9023 123.816 26.332V21C123.434 20.4219 122.82 20.1328 121.977 20.1328C121.273 20.1328 120.723 20.4492 120.324 21.082C119.926 21.707 119.727 22.6172 119.727 23.8125ZM137.703 20.8945L136.402 20.8008C135.16 20.8008 134.363 21.1914 134.012 21.9727V30H130.062V17.3203H133.766L133.895 18.9492C134.559 17.707 135.484 17.0859 136.672 17.0859C137.094 17.0859 137.461 17.1328 137.773 17.2266L137.703 20.8945ZM145.918 30C145.777 29.7422 145.652 29.3633 145.543 28.8633C144.816 29.7773 143.801 30.2344 142.496 30.2344C141.301 30.2344 140.285 29.875 139.449 29.1562C138.613 28.4297 138.195 27.5195 138.195 26.4258C138.195 25.0508 138.703 24.0117 139.719 23.3086C140.734 22.6055 142.211 22.2539 144.148 22.2539H145.367V21.5859C145.367 20.4219 144.863 19.8398 143.855 19.8398C142.918 19.8398 142.449 20.3008 142.449 21.2227H138.5C138.5 19.9961 139.02 19 140.059 18.2344C141.105 17.4688 142.437 17.0859 144.055 17.0859C145.672 17.0859 146.949 17.4805 147.887 18.2695C148.824 19.0586 149.305 20.1406 149.328 21.5156V27.1289C149.344 28.293 149.523 29.1836 149.867 29.8008V30H145.918ZM143.445 27.4219C143.937 27.4219 144.344 27.3164 144.664 27.1055C144.992 26.8945 145.227 26.6562 145.367 26.3906V24.3633H144.219C142.844 24.3633 142.156 24.9805 142.156 26.2148C142.156 26.5742 142.277 26.8672 142.52 27.0938C142.762 27.3125 143.07 27.4219 143.445 27.4219ZM163.297 23.7539C163.297 25.7227 162.852 27.2969 161.961 28.4766C161.078 29.6484 159.883 30.2344 158.375 30.2344C157.211 30.2344 156.254 29.8086 155.504 28.957V34.875H151.555V17.3203H155.246L155.363 18.4922C156.121 17.5547 157.117 17.0859 158.352 17.0859C159.914 17.0859 161.129 17.6641 161.996 18.8203C162.863 19.9688 163.297 21.5508 163.297 23.5664V23.7539ZM159.348 23.5078C159.348 21.2578 158.691 20.1328 157.379 20.1328C156.441 20.1328 155.816 20.4688 155.504 21.1406V26.1328C155.848 26.8359 156.48 27.1875 157.402 27.1875C158.66 27.1875 159.309 26.1016 159.348 23.9297V23.5078ZM168.91 18.6797C169.754 17.6172 170.832 17.0859 172.145 17.0859C173.543 17.0859 174.598 17.5 175.309 18.3281C176.02 19.1562 176.383 20.3789 176.398 21.9961V30H172.437V22.0898C172.437 21.418 172.301 20.9258 172.027 20.6133C171.754 20.293 171.289 20.1328 170.633 20.1328C169.82 20.1328 169.246 20.3906 168.91 20.9062V30H164.961V12H168.91V18.6797ZM184.73 30.2344C182.785 30.2344 181.211 29.6562 180.008 28.5C178.805 27.3359 178.203 25.8242 178.203 23.9648V23.6367C178.203 22.3398 178.441 21.1953 178.918 20.2031C179.402 19.2109 180.105 18.4453 181.027 17.9062C181.949 17.3594 183.043 17.0859 184.309 17.0859C186.09 17.0859 187.496 17.6406 188.527 18.75C189.559 19.8516 190.074 21.3906 190.074 23.3672V24.9023H182.223C182.363 25.6133 182.672 26.1719 183.148 26.5781C183.625 26.9844 184.242 27.1875 185 27.1875C186.25 27.1875 187.227 26.75 187.93 25.875L189.734 28.0078C189.242 28.6875 188.543 29.2305 187.637 29.6367C186.738 30.0352 185.77 30.2344 184.73 30.2344ZM184.285 20.1328C183.129 20.1328 182.441 20.8984 182.223 22.4297H186.207V22.125C186.223 21.4922 186.062 21.0039 185.727 20.6602C185.391 20.3086 184.91 20.1328 184.285 20.1328ZM199.344 20.8945L198.043 20.8008C196.801 20.8008 196.004 21.1914 195.652 21.9727V30H191.703V17.3203H195.406L195.535 18.9492C196.199 17.707 197.125 17.0859 198.312 17.0859C198.734 17.0859 199.102 17.1328 199.414 17.2266L199.344 20.8945ZM203.164 13.8984L202.777 18.7383H200.352V12H203.164V13.8984ZM210.219 26.4375C210.219 26.1016 210.043 25.832 209.691 25.6289C209.34 25.4258 208.672 25.2148 207.688 24.9961C206.703 24.7773 205.891 24.4922 205.25 24.1406C204.609 23.7812 204.121 23.3477 203.785 22.8398C203.449 22.332 203.281 21.75 203.281 21.0938C203.281 19.9297 203.762 18.9727 204.723 18.2227C205.684 17.4648 206.941 17.0859 208.496 17.0859C210.168 17.0859 211.512 17.4648 212.527 18.2227C213.543 18.9805 214.051 19.9766 214.051 21.2109H210.09C210.09 20.1953 209.555 19.6875 208.484 19.6875C208.07 19.6875 207.723 19.8047 207.441 20.0391C207.16 20.2656 207.02 20.5508 207.02 20.8945C207.02 21.2461 207.191 21.5312 207.535 21.75C207.879 21.9688 208.426 22.1484 209.176 22.2891C209.934 22.4297 210.598 22.5977 211.168 22.793C213.074 23.4492 214.027 24.625 214.027 26.3203C214.027 27.4766 213.512 28.418 212.48 29.1445C211.457 29.8711 210.129 30.2344 208.496 30.2344C207.41 30.2344 206.441 30.0391 205.59 29.6484C204.738 29.2578 204.074 28.7266 203.598 28.0547C203.121 27.3828 202.883 26.6758 202.883 25.9336H206.574C206.59 26.5195 206.785 26.9492 207.16 27.2227C207.535 27.4883 208.016 27.6211 208.602 27.6211C209.141 27.6211 209.543 27.5117 209.809 27.293C210.082 27.0742 210.219 26.7891 210.219 26.4375ZM236.012 27.8906C235.379 28.5938 234.453 29.1602 233.234 29.5898C232.016 30.0195 230.68 30.2344 229.227 30.2344C226.992 30.2344 225.207 29.5508 223.871 28.1836C222.535 26.8164 221.82 24.9141 221.727 22.4766L221.715 21C221.715 19.3203 222.012 17.8555 222.605 16.6055C223.199 15.3477 224.047 14.3828 225.148 13.7109C226.258 13.0312 227.539 12.6914 228.992 12.6914C231.117 12.6914 232.766 13.1797 233.938 14.1562C235.117 15.125 235.805 16.5742 236 18.5039H232.039C231.898 17.5508 231.594 16.8711 231.125 16.4648C230.656 16.0586 229.992 15.8555 229.133 15.8555C228.102 15.8555 227.305 16.293 226.742 17.168C226.18 18.043 225.895 19.293 225.887 20.918V21.9492C225.887 23.6523 226.176 24.9336 226.754 25.793C227.34 26.6445 228.258 27.0703 229.508 27.0703C230.578 27.0703 231.375 26.832 231.898 26.3555V23.707H229.039V20.8828H236.012V27.8906ZM245.363 30C245.223 29.7422 245.098 29.3633 244.988 28.8633C244.262 29.7773 243.246 30.2344 241.941 30.2344C240.746 30.2344 239.73 29.875 238.895 29.1562C238.059 28.4297 237.641 27.5195 237.641 26.4258C237.641 25.0508 238.148 24.0117 239.164 23.3086C240.18 22.6055 241.656 22.2539 243.594 22.2539H244.812V21.5859C244.812 20.4219 244.309 19.8398 243.301 19.8398C242.363 19.8398 241.895 20.3008 241.895 21.2227H237.945C237.945 19.9961 238.465 19 239.504 18.2344C240.551 17.4688 241.883 17.0859 243.5 17.0859C245.117 17.0859 246.395 17.4805 247.332 18.2695C248.27 19.0586 248.75 20.1406 248.773 21.5156V27.1289C248.789 28.293 248.969 29.1836 249.312 29.8008V30H245.363ZM242.891 27.4219C243.383 27.4219 243.789 27.3164 244.109 27.1055C244.438 26.8945 244.672 26.6562 244.812 26.3906V24.3633H243.664C242.289 24.3633 241.602 24.9805 241.602 26.2148C241.602 26.5742 241.723 26.8672 241.965 27.0938C242.207 27.3125 242.516 27.4219 242.891 27.4219ZM255.137 30H251.176V12H255.137V30ZM261.746 30H257.785V12H261.746V30ZM270.324 30.2344C268.379 30.2344 266.805 29.6562 265.602 28.5C264.398 27.3359 263.797 25.8242 263.797 23.9648V23.6367C263.797 22.3398 264.035 21.1953 264.512 20.2031C264.996 19.2109 265.699 18.4453 266.621 17.9062C267.543 17.3594 268.637 17.0859 269.902 17.0859C271.684 17.0859 273.09 17.6406 274.121 18.75C275.152 19.8516 275.668 21.3906 275.668 23.3672V24.9023H267.816C267.957 25.6133 268.266 26.1719 268.742 26.5781C269.219 26.9844 269.836 27.1875 270.594 27.1875C271.844 27.1875 272.82 26.75 273.523 25.875L275.328 28.0078C274.836 28.6875 274.137 29.2305 273.23 29.6367C272.332 30.0352 271.363 30.2344 270.324 30.2344ZM269.879 20.1328C268.723 20.1328 268.035 20.8984 267.816 22.4297H271.801V22.125C271.816 21.4922 271.656 21.0039 271.32 20.6602C270.984 20.3086 270.504 20.1328 269.879 20.1328ZM284.938 20.8945L283.637 20.8008C282.395 20.8008 281.598 21.1914 281.246 21.9727V30H277.297V17.3203H281L281.129 18.9492C281.793 17.707 282.719 17.0859 283.906 17.0859C284.328 17.0859 284.695 17.1328 285.008 17.2266L284.938 20.8945ZM291.641 24.4688L293.75 17.3203H297.98L292.812 32.1211L292.59 32.6602C291.855 34.3008 290.559 35.1211 288.699 35.1211C288.184 35.1211 287.641 35.043 287.07 34.8867V32.0625H287.586C288.141 32.0625 288.562 31.9805 288.852 31.8164C289.148 31.6602 289.367 31.375 289.508 30.9609L289.824 30.1172L285.418 17.3203H289.637L291.641 24.4688Z" fill="url(#paint4_linear)"/>
</g>
<defs>
<filter id="filter0_d" x="0" y="0" width="301" height="39.2734" filterUnits="userSpaceOnUse" color-interpolation-filters="sRGB">
<feFlood flood-opacity="0" result="BackgroundImageFix"/>
<feColorMatrix in="SourceAlpha" type="matrix" values="0 0 0 0 0 0 0 0 0 0 0 0 0 0 0 0 0 0 127 0"/>
<feOffset dx="1" dy="1"/>
<feGaussianBlur stdDeviation="1"/>
<feColorMatrix type="matrix" values="0 0 0 0 0 0 0 0 0 0 0 0 0 0 0 0 0 0 0.3 0"/>
<feBlend mode="normal" in2="BackgroundImageFix" result="effect1_dropShadow"/>
<feBlend mode="normal" in="SourceGraphic" in2="effect1_dropShadow" result="shape"/>
</filter>
<linearGradient id="paint0_linear" x1="8.05469" y1="1.00003" x2="8.05469" y2="3.46097" gradientUnits="userSpaceOnUse">
<stop stop-color="#4B0277"/>
<stop offset="1" stop-color="#D096F3"/>
</linearGradient>
<linearGradient id="paint1_linear" x1="22" y1="1" x2="22" y2="36.2734" gradientUnits="userSpaceOnUse">
<stop stop-color="#4B0277"/>
<stop offset="1" stop-color="#D096F3"/>
</linearGradient>
<linearGradient id="paint2_linear" x1="22" y1="10.8437" x2="22" y2="29.7109" gradientUnits="userSpaceOnUse">
<stop stop-color="#4B0277"/>
<stop offset="1" stop-color="#D096F3"/>
</linearGradient>
<linearGradient id="paint3_linear" x1="22" y1="16.1758" x2="22" y2="24.3789" gradientUnits="userSpaceOnUse">
<stop stop-color="#4B0277"/>
<stop offset="1" stop-color="#D096F3"/>
</linearGradient>
<linearGradient id="paint4_linear" x1="174.5" y1="8" x2="174.5" y2="36" gradientUnits="userSpaceOnUse">
<stop stop-color="#4B0277"/>
<stop offset="1" stop-color="#D096F3"/>
</linearGradient>
</defs>
</svg>
